<svg data-name="Layer 1" xmlns="http://www.w3.org/2000/svg" viewBox="0 0 284 233.78"><path d="M75.92 33.11C42.12 33.11 8 53.17 8 98v103.7c0 45 34.12 65.2 67.92 65.2 40.88 0 66.28-23.88 66.28-62.33v-22.92a6.47 6.47 0 0 0-6.59-6.35h-28a6.47 6.47 0 0 0-6.59 6.35v22.27c0 15.41-8.1 23.23-24.08 23.23-15.74 0-24.41-7.8-24.41-22V94.49c0-14.16 8.67-22 24.41-22C96.82 72.53 101 85.17 101 95.76V118a6.47 6.47 0 0 0 6.59 6.35h28a6.47 6.47 0 0 0 6.61-6.35V95.13c0-38.26-25.4-62.02-66.28-62.02Z" transform="translate(-8 -33.11)" style="fill:#0b4572"/><path d="M272.74 146.6c11.26-7.45 16.95-20.15 16.95-37.95V91.47c0-35.16-19.83-53.75-57.37-53.75h-63.64a6.47 6.47 0 0 0-6.59 6.35v211.86a6.48 6.48 0 0 0 6.59 6.35H234c38 0 58-18.59 58-53.75v-22.59c0-18.41-6.59-31.74-19.26-39.34Zm-26.89-33.5c0 12.27-5 17.51-16.83 17.51h-22.43v-54.1h26.06c7.93 0 13.2 2.44 13.2 14.33Zm-39.26 54.07h24.08c11.64 0 16.83 5.4 16.83 17.5v24.81c0 10-3.92 14-13.53 14h-27.38Z" transform="translate(-8 -33.11)" style="fill:#2f8fce"/></svg>