<?xml version="1.0" encoding="utf-8"?>
<!-- Generator: Adobe Illustrator 27.0.0, SVG Export Plug-In . SVG Version: 6.00 Build 0)  -->
<svg version="1.1" id="Layer_1" xmlns="http://www.w3.org/2000/svg" xmlns:xlink="http://www.w3.org/1999/xlink" x="0px" y="0px"
	 viewBox="0 0 215 56" style="enable-background:new 0 0 215 56;" xml:space="preserve">
<style type="text/css">
	.st0{fill:#FFFFFF;}
	.st1{fill:#C6E7FA;}
</style>
<path class="st0" d="M12,0C6,0,0,3.7,0,11.8v18.9C0,39,6,42.6,12,42.6c7.2,0,11.6-4.3,11.6-11.4v-4.2c0-0.6-0.5-1.2-1.1-1.2
	c0,0,0,0,0,0h-5c-0.6,0-1.2,0.5-1.2,1.1c0,0,0,0,0,0v4.1c0,2.8-1.4,4.2-4.2,4.2s-4.3-1.4-4.3-4V11.2c0-2.6,1.5-4,4.3-4
	c3.5,0,4.2,2.3,4.2,4.2v4.1c0,0.6,0.5,1.1,1.2,1.1h5c0.6,0,1.2-0.5,1.2-1.1v0v-4.2C23.6,4.3,19.1,0,12,0z"/>
<path class="st0" d="M44.6,36.1c-0.1,0-0.2,0-0.4,0c0-0.1,0-0.2,0-0.3L44,21.4c-0.1-6.2-3.4-9.6-9.3-9.5c-5.5,0.1-9,3.6-8.9,9v1.6
	c0,0.6,0.5,1.2,1.2,1.1c0,0,0,0,0,0l4.6-0.1c0.6,0,1.1-0.5,1.1-1.2c0,0,0-0.1,0-0.1v-1.4c0-2,0.3-2.4,2.1-2.5c1.5,0,2.2,0.6,2.2,2.2
	v2.8c-5.8,1.2-12.1,3.4-12,10.2v0.7c0.1,5,3.2,8.1,8,8.1c2.2,0,4.3-0.8,6-2.3c0.9,1.5,2.5,2.3,4.2,2.1h1.4c0.6,0,1.2-0.5,1.1-1.2
	c0,0,0,0,0,0l-0.1-3.7C45.7,36.6,45.2,36.1,44.6,36.1z M37.2,32.9c-0.1,1.7-1.6,3.1-3.4,3c-1,0.1-1.8-0.7-1.9-1.7c0-0.1,0-0.2,0-0.3
	v-0.7c0-0.9-0.1-3.1,5.2-4.1L37.2,32.9z"/>
<path class="st0" d="M60.7,12.1c-3-0.5-5.2,0.1-6.8,2l-0.1-0.8c-0.1-0.6-0.6-1.1-1.2-1.1h-4.1c-0.6,0-1.2,0.5-1.2,1.1c0,0,0,0,0,0
	v27.2c0,0.6,0.5,1.2,1.1,1.2c0,0,0,0,0,0h4.9c0.6,0,1.2-0.5,1.2-1.2v0v-19c-0.1-0.6,0.2-1.2,0.6-1.6c0.6-0.5,1.9-1,5.1-0.6
	c0.3,0,0.7-0.1,0.9-0.3c0.3-0.2,0.4-0.5,0.4-0.9v-5C61.6,12.7,61.2,12.3,60.7,12.1z"/>
<path class="st0" d="M75.1,11.8c-1.9,0-3.7,0.6-5.1,1.8V2c0-0.6-0.5-1.2-1.2-1.2l0,0H64c-0.6,0-1.2,0.5-1.2,1.2v0v38.6
	c0,0.6,0.5,1.2,1.2,1.2h0h3.2c0.5,0,1-0.4,1.1-0.9l0.2-0.9c1.5,1.5,3.6,2.3,5.8,2.3c4.9,0,8.1-3.7,8.1-9.1V20.9
	C82.4,15.4,79.5,11.8,75.1,11.8z M75.3,22v10.4c0,3.2-1.3,3.6-2.6,3.6c-1.3,0-2.7-0.9-2.7-3.3v-11c0-2.1,1-3.3,2.8-3.3
	C74.1,18.4,75.3,18.8,75.3,22z"/>
<path class="st0" d="M94.4,11.8c-5.8,0-9.7,4.1-9.7,10.3v10c0,6.1,3.8,10.1,9.7,10.1s9.6-4,9.6-10.2v-10
	C104,15.9,100.2,11.8,94.4,11.8z M91.8,21.2c0-1.1,0.3-2.8,2.6-2.8s2.6,1.8,2.6,2.8v11.7c0,1.9-0.9,2.8-2.6,2.8s-2.6-1-2.6-2.8V21.2
	z"/>
<path class="st0" d="M118.8,11.9c-2.2,0-4.2,1-5.5,2.7l-0.1-1.2c0-0.6-0.5-1.1-1.1-1.1H108c-0.6,0-1.1,0.5-1.1,1.2v27.2
	c0,0.6,0.5,1.2,1.1,1.2c0,0,0,0,0,0h4.9c0.6,0,1.2-0.5,1.2-1.2v0V22.9c0-1.4,1.2-4.7,3.2-4.7s2.1,1.8,2.1,2.6v19.8
	c0,0.6,0.5,1.2,1.2,1.2h4.9c0.6,0,1.2-0.5,1.2-1.2v0v-20C126.6,15.2,123.6,11.9,118.8,11.9z"/>
<path class="st1" d="M149.5,20.7c2-1.4,3-3.7,3-6.9v-3.1c0-6.4-3.5-9.8-10.1-9.8h-11.2c-0.6,0-1.2,0.5-1.2,1.2v0v38.6
	c0,0.6,0.5,1.2,1.2,1.2l0,0h11.5c6.7,0,10.2-3.4,10.2-9.8v-4.1C152.9,24.5,151.7,22,149.5,20.7z M144.8,14.6c0,2.2-0.9,3.2-3,3.2
	h-3.9V7.9h4.6c1.4,0,2.3,0.5,2.3,2.6L144.8,14.6z M137.9,24.4h4.2c2.1,0,3,1,3,3.2v4.5c0,1.8-0.7,2.6-2.4,2.6h-4.8L137.9,24.4z"/>
<path class="st1" d="M168.8,12.1c-3-0.5-5.2,0.1-6.8,2l-0.1-0.8c-0.1-0.6-0.6-1.1-1.2-1.1h-4.1c-0.6,0-1.2,0.5-1.2,1.2v27.2
	c0,0.6,0.5,1.2,1.2,1.2l0,0h4.9c0.6,0,1.2-0.5,1.2-1.2v0v-19c-0.1-0.6,0.2-1.2,0.6-1.6c0.6-0.5,1.9-1,5.1-0.6c0.6,0.1,1.2-0.4,1.3-1
	c0-0.1,0-0.1,0-0.2v-5C169.7,12.7,169.3,12.2,168.8,12.1z"/>
<path class="st1" d="M172.2,2.8h4.5c0.6,0,1.2,0.5,1.2,1.2v5.2c0,0.6-0.5,1.2-1.2,1.2h-4.5c-0.6,0-1.2-0.5-1.2-1.2V3.9
	C171.1,3.3,171.6,2.8,172.2,2.8z"/>
<path class="st1" d="M172.1,12.3h4.9c0.6,0,1.2,0.5,1.2,1.2v27.2c0,0.6-0.5,1.2-1.2,1.2h-4.9c-0.6,0-1.2-0.5-1.2-1.2V13.5
	C170.9,12.8,171.4,12.3,172.1,12.3z"/>
<path class="st1" d="M190.5,11.8c-5.9,0-9.6,4-9.6,10.3v10c0,6.1,3.8,10.1,9.6,10.1s9.2-3.8,9.2-10V31c0-0.6-0.5-1.1-1.1-1.2
	c0,0,0,0,0,0h-4.3c-0.6,0-1.2,0.5-1.2,1.1c0,0,0,0,0,0v1.9c0,2-0.9,3-2.6,3s-2.6-1-2.6-3v-4.3h10.6c0.6,0,1.2-0.5,1.2-1.1
	c0,0,0,0,0,0v-5.2C199.7,15.8,196.2,11.8,190.5,11.8z M187.9,23.4v-2.1c0-1.3,0.4-3,2.6-3s2.6,1.6,2.6,3v2.1L187.9,23.4z"/>
<path class="st1" d="M213.9,0.8h-1.9c-5.3,0-8.4,3.7-8.4,10.1v1.4h-2c-0.6,0-1.1,0.5-1.1,1.1v4.1c0,0.6,0.5,1.2,1.2,1.2l0,0h2v21.9
	c0,0.6,0.5,1.2,1.2,1.2l0,0h4.9c0.6,0,1.2-0.5,1.2-1.2v0V18.7h2.6c0.6,0,1.2-0.5,1.1-1.2v-4.1c0-0.6-0.5-1.1-1.1-1.2h-2.9V9.9
	c0-2.5,1-2.7,2-2.7h1.3c0.6,0,1.2-0.5,1.2-1.2v0V2C215,1.3,214.5,0.8,213.9,0.8C213.9,0.8,213.9,0.8,213.9,0.8z"/>
<path class="st1" d="M48,50c0.7,0,1.5,0.3,2,0.8c0.1,0.1,0.1,0.2,0,0.2c0,0,0,0,0,0l-0.5,0.5c0,0.1-0.1,0.1-0.2,0c0,0,0,0,0,0
	C48.9,51.2,48.5,51,48,51c-1.1,0.2-1.8,1.3-1.5,2.4c0.2,0.7,0.8,1.3,1.5,1.5c0.5,0,0.9-0.2,1.3-0.5c0.1-0.1,0.2-0.1,0.2,0L50,55
	c0.1,0.1,0.1,0.2,0,0.2c-0.5,0.5-1.3,0.8-2,0.8c-1.7,0-3-1.3-3-3S46.4,50,48,50L48,50z"/>
<path class="st1" d="M57,50.2c0-0.1,0.1-0.2,0.2-0.2h0H58c0.1,0,0.2,0.1,0.2,0.2v0v4.7h2.1c0.1,0,0.2,0.1,0.2,0.1c0,0,0,0,0,0v0.7
	c0,0.1-0.1,0.2-0.1,0.2c0,0,0,0,0,0h-3.1c-0.1,0-0.2-0.1-0.2-0.2v0V50.2z"/>
<path class="st1" d="M67.2,50.2c0-0.1,0.1-0.2,0.2-0.2h0h3.4c0.1,0,0.2,0.1,0.2,0.2v0v0.7c0,0.1-0.1,0.2-0.2,0.2l0,0h-2.5v1.4h2.1
	c0.1,0,0.2,0.1,0.2,0.2v0v0.7c0,0.1-0.1,0.2-0.2,0.2h0h-2.1v1.5h2.5c0.1,0,0.2,0.1,0.2,0.1c0,0,0,0,0,0v0.7c0,0.1-0.1,0.2-0.1,0.2
	c0,0,0,0,0,0h-3.4c-0.1,0-0.2-0.1-0.2-0.2v0L67.2,50.2z"/>
<path class="st1" d="M77.2,55.7l2.6-5.6c0-0.1,0.1-0.1,0.1-0.1H80c0.1,0,0.1,0,0.1,0.1l2.6,5.6c0,0.1,0,0.2-0.1,0.2c0,0-0.1,0-0.1,0
	h-0.7c-0.1,0-0.2-0.1-0.2-0.2l-0.4-0.9h-2.5l-0.4,0.9c0,0.1-0.1,0.2-0.2,0.2h-0.7C77.3,55.9,77.2,55.9,77.2,55.7
	C77.2,55.8,77.2,55.7,77.2,55.7z M80.8,53.9L80,52.1l0,0l-0.8,1.8H80.8z"/>
<path class="st1" d="M89.4,50.2c0-0.1,0.1-0.2,0.2-0.2h0H92c1,0,1.8,0.8,1.8,1.8c0,0.8-0.5,1.4-1.2,1.7l1.1,2.1c0,0.1,0,0.2-0.1,0.2
	c0,0-0.1,0-0.1,0h-0.9c-0.1,0-0.1,0-0.1-0.1l-1.1-2.2h-1v2.1c0,0.1-0.1,0.2-0.2,0.2h0h-0.8c-0.1,0-0.2-0.1-0.2-0.2v0L89.4,50.2z
	 M91.9,52.7c0.5,0,0.8-0.4,0.8-0.9c0-0.4-0.4-0.8-0.8-0.8h-1.4v1.7H91.9z"/>
<path class="st1" d="M111.2,50c1.7,0,3,1.3,3,3s-1.3,3-3,3s-3-1.3-3-3S109.5,50,111.2,50z M111.2,55c1.1,0,1.9-0.9,1.9-1.9
	s-0.9-1.9-1.9-1.9c-1.1,0-1.9,0.9-1.9,1.9c0,0,0,0,0,0C109.3,54.1,110.2,54.9,111.2,55L111.2,55z"/>
<path class="st1" d="M121.2,50.1c0-0.1,0.1-0.2,0.1-0.2c0,0,0,0,0,0h0.2l3.5,3.7l0,0v-3.4c0-0.1,0.1-0.2,0.2-0.2l0,0h0.8
	c0.1,0,0.2,0.1,0.2,0.2v5.7c0,0.1-0.1,0.2-0.2,0.2h-0.2l-3.5-3.8l0,0v3.6c0,0.1-0.1,0.2-0.2,0.2l0,0h-0.8c-0.1,0-0.2-0.1-0.2-0.2v0
	L121.2,50.1z"/>
<path class="st1" d="M143.9,50c0.7,0,1.5,0.3,2,0.8c0.1,0.1,0.1,0.1,0,0.2c0,0,0,0,0,0l-0.5,0.5c0,0.1-0.1,0.1-0.2,0c0,0,0,0,0,0
	c-0.4-0.3-0.8-0.5-1.3-0.5c-1.1,0.2-1.8,1.3-1.5,2.4c0.2,0.7,0.8,1.3,1.5,1.5c0.5,0,0.9-0.2,1.3-0.5c0.1-0.1,0.2-0.1,0.2,0l0.5,0.5
	c0.1,0.1,0.1,0.2,0,0.2c0,0,0,0,0,0c-0.5,0.5-1.3,0.8-2,0.8c-1.7,0-3-1.3-3-3S142.2,50,143.9,50L143.9,50z"/>
<path class="st1" d="M152.9,50.2c0-0.1,0.1-0.2,0.2-0.2l0,0h0.8c0.1,0,0.2,0.1,0.2,0.2v0v4.7h2.1c0.1,0,0.2,0.1,0.2,0.2v0v0.7
	c0,0.1-0.1,0.2-0.2,0.2l0,0h-3.1c-0.1,0-0.2-0.1-0.2-0.2v0V50.2z"/>
<path class="st1" d="M163,50.2c0-0.1,0.1-0.2,0.2-0.2l0,0h0.8c0.1,0,0.2,0.1,0.2,0.2v5.6c0,0.1-0.1,0.2-0.2,0.2l0,0h-0.8
	c-0.1,0-0.2-0.1-0.2-0.2v0V50.2z"/>
<path class="st1" d="M172.1,50.1c0-0.1,0.1-0.1,0.1-0.1h0.2c0.1,0,0.1,0,0.1,0.1l1.9,4l0,0l1.9-4c0-0.1,0.1-0.1,0.1-0.1h0.1
	c0.1,0,0.1,0,0.2,0.1c0,0,0,0,0,0l1,5.6c0,0.1,0,0.2-0.1,0.2c0,0,0,0-0.1,0h-0.8c-0.1,0-0.1-0.1-0.2-0.1l-0.5-3.2l0,0l-1.5,3.3
	c0,0.1-0.1,0.1-0.1,0.1h-0.1c-0.1,0-0.1,0-0.1-0.1l-1.5-3.3l0,0l-0.5,3.2c0,0.1-0.1,0.1-0.1,0.1h-0.8c-0.1,0-0.2-0.1-0.2-0.2
	L172.1,50.1z"/>
<path class="st1" d="M184,55.7l2.6-5.6c0-0.1,0.1-0.1,0.1-0.1h0.1c0.1,0,0.1,0,0.1,0.1l2.6,5.6c0,0.1,0,0.2-0.1,0.2c0,0-0.1,0-0.1,0
	h-0.7c-0.1,0-0.2,0-0.2-0.2l-0.4-0.9h-2.5l-0.4,0.9c0,0.1-0.1,0.2-0.2,0.2h-0.7C184,55.9,183.9,55.9,184,55.7
	C184,55.7,184,55.7,184,55.7z M187.6,53.9l-0.8-1.8l0,0l-0.8,1.8H187.6z"/>
<path class="st1" d="M196.6,51.1h-1.3c-0.1,0-0.2-0.1-0.2-0.2v0v-0.7c0-0.1,0.1-0.2,0.2-0.2l0,0h3.7c0.1,0,0.2,0.1,0.2,0.2v0v0.7
	c0,0.1-0.1,0.2-0.2,0.2l0,0h-1.3v4.7c0,0.1-0.1,0.2-0.2,0.2l0,0h-0.8c-0.1,0-0.2-0.1-0.2-0.2v0V51.1z"/>
<path class="st1" d="M205.9,50.2c0-0.1,0.1-0.2,0.1-0.2h3.4c0.1,0,0.2,0.1,0.2,0.2v0v0.7c0,0.1-0.1,0.2-0.2,0.2l0,0H207v1.4h2.1
	c0.1,0,0.2,0.1,0.2,0.2v0.7c0,0.1-0.1,0.2-0.2,0.2l0,0H207v1.5h2.5c0.1,0,0.2,0.1,0.2,0.2v0v0.7c0,0.1-0.1,0.2-0.2,0.2l0,0h-3.4
	c-0.1,0-0.2-0.1-0.2-0.1c0,0,0,0,0,0L205.9,50.2z"/>
</svg>
