<svg id="Layer_1" data-name="Layer 1" xmlns="http://www.w3.org/2000/svg" viewBox="0 0 215.03 56.02"><defs><style>.cls-1{fill:#054572}.cls-2{fill:#2c8fce}</style></defs><path class="cls-1" d="M39.47 47.77c-5.95 0-11.95 3.66-11.95 11.83v18.91c0 8.22 6 11.89 12 11.89 7.19 0 11.65-4.35 11.65-11.37v-4.17A1.15 1.15 0 0 0 50 73.7h-5a1.15 1.15 0 0 0-1.15 1.16v4.06c0 2.81-1.43 4.23-4.24 4.23s-4.29-1.42-4.29-4V59c0-2.58 1.52-4 4.29-4 3.5 0 4.24 2.3 4.24 4.23v4.07A1.15 1.15 0 0 0 45 64.41h5a1.15 1.15 0 0 0 1.15-1.15v-4.18c-.03-6.98-4.49-11.31-11.68-11.31ZM72.1 83.87a1.44 1.44 0 0 1-.36 0 .57.57 0 0 1 0-.31l-.24-14.39c-.11-6.24-3.4-9.63-9.27-9.53-5.49.09-9 3.61-8.9 9v1.56a1.16 1.16 0 0 0 1.18 1.14l4.58-.08A1.15 1.15 0 0 0 60.21 70v-1.4c0-2 .31-2.44 2.11-2.47 1.53 0 2.16.6 2.19 2.17v2.79c-5.85 1.15-12.12 3.45-12 10.23V82c.08 5 3.23 8.13 8 8.05a9.31 9.31 0 0 0 6-2.3 4.43 4.43 0 0 0 4.24 2.12h1.45a1.16 1.16 0 0 0 1.14-1.18L73.28 85a1.16 1.16 0 0 0-1.18-1.13Zm-7.42-3.19a3.23 3.23 0 0 1-3.37 3 1.78 1.78 0 0 1-1.89-2V81c0-.88-.06-3.09 5.21-4.14ZM88.22 59.91c-3-.53-5.17.11-6.76 2l-.06-.78a1.16 1.16 0 0 0-1.16-1.06h-4.06A1.15 1.15 0 0 0 75 61.22v27.15a1.15 1.15 0 0 0 1.15 1.16h4.88a1.16 1.16 0 0 0 1.16-1.16v-19a1.91 1.91 0 0 1 .59-1.6c.56-.5 1.89-1 5.07-.62a1.13 1.13 0 0 0 .9-.28 1.17 1.17 0 0 0 .4-.87v-4.95a1.17 1.17 0 0 0-.93-1.14ZM102.58 59.6a7.91 7.91 0 0 0-5.11 1.83V49.74a1.16 1.16 0 0 0-1.16-1.16H91.5a1.16 1.16 0 0 0-1.16 1.16v38.63a1.16 1.16 0 0 0 1.16 1.16h3.19a1.16 1.16 0 0 0 1.13-.93l.18-.87a7.76 7.76 0 0 0 5.76 2.27c4.86 0 8.12-3.66 8.12-9.11V68.65c0-5.5-2.88-9.05-7.3-9.05Zm.23 10.15v10.44c0 3.18-1.32 3.6-2.61 3.6s-2.73-.86-2.73-3.31v-11c0-2.1 1-3.31 2.84-3.31 1.3-.02 2.5.42 2.5 3.58ZM121.89 59.6c-5.79 0-9.68 4.13-9.68 10.27v10C112.21 86 116 90 121.89 90s9.63-4 9.63-10.15v-10c0-6.22-3.78-10.25-9.63-10.25Zm-2.55 9.34c0-1.06.33-2.84 2.55-2.84s2.56 1.78 2.56 2.84v11.72c0 1.89-.86 2.84-2.56 2.84s-2.55-1-2.55-2.84ZM146.31 59.66a6.63 6.63 0 0 0-5.49 2.74l-.08-1.25a1.15 1.15 0 0 0-1.15-1.08h-4.07a1.15 1.15 0 0 0-1.15 1.15v27.15a1.15 1.15 0 0 0 1.15 1.16h4.88a1.16 1.16 0 0 0 1.16-1.16V70.62c0-1.39 1.24-4.7 3.19-4.7s2.09 1.83 2.09 2.61v19.84a1.16 1.16 0 0 0 1.16 1.16h4.93a1.16 1.16 0 0 0 1.16-1.16v-20c0-5.37-2.98-8.71-7.78-8.71Z" transform="translate(-27.52 -47.77)"/><path class="cls-2" d="M177 68.44c2-1.36 3-3.68 3-6.93v-3.13c0-6.41-3.49-9.8-10.1-9.8h-11.17a1.16 1.16 0 0 0-1.16 1.16v38.63a1.16 1.16 0 0 0 1.16 1.16h11.48c6.68 0 10.21-3.39 10.21-9.8v-4.12c0-3.36-1.16-5.79-3.42-7.17Zm-4.73-6.11c0 2.23-.88 3.19-3 3.19h-3.87v-9.87h4.6c1.4 0 2.32.45 2.32 2.62Zm-6.9 9.86h4.23c2.05 0 3 1 3 3.19v4.52c0 1.82-.69 2.56-2.38 2.56h-4.82ZM196.29 59.91c-3-.53-5.17.11-6.76 2l-.06-.78a1.16 1.16 0 0 0-1.16-1.06h-4.06a1.16 1.16 0 0 0-1.16 1.15v27.15a1.16 1.16 0 0 0 1.16 1.16h4.87a1.16 1.16 0 0 0 1.16-1.16v-19a1.94 1.94 0 0 1 .59-1.6c.57-.5 1.9-1 5.07-.62a1.15 1.15 0 0 0 1.3-1.15v-4.95a1.16 1.16 0 0 0-.95-1.14Z" transform="translate(-27.52 -47.77)"/><rect class="cls-2" x="171.06" y="2.78" width="6.84" height="7.48" rx="1.16"/><rect class="cls-2" x="170.89" y="12.3" width="7.19" height="29.47" rx="1.16"/><path class="cls-2" d="M218 59.6c-5.85 0-9.63 4-9.63 10.27v10C208.38 86 212.16 90 218 90s9.22-3.76 9.22-10v-1.26a1.14 1.14 0 0 0-1.15-1.15h-4.3a1.15 1.15 0 0 0-1.16 1.15v1.86c0 2-.86 3-2.55 3s-2.61-1-2.61-3v-4.35h10.62a1.15 1.15 0 0 0 1.15-1.16v-5.22c.01-6.33-3.52-10.27-9.22-10.27Zm-2.55 11.55v-2.09c0-1.35.45-3 2.61-3s2.55 1.61 2.55 3v2.09ZM241.39 48.58h-1.92c-5.3 0-8.35 3.68-8.35 10.09v1.4h-2a1.16 1.16 0 0 0-1.12 1.15v4.12a1.16 1.16 0 0 0 1.16 1.16h2v21.87a1.16 1.16 0 0 0 1.16 1.16h4.87a1.16 1.16 0 0 0 1.16-1.16V66.5h2.62a1.16 1.16 0 0 0 1.15-1.16v-4.12a1.16 1.16 0 0 0-1.15-1.15h-2.85v-2.38c0-2.47 1-2.67 2-2.67h1.28a1.16 1.16 0 0 0 1.16-1.16v-4.12a1.16 1.16 0 0 0-1.17-1.16Z" transform="translate(-27.52 -47.77)"/><path class="cls-1" d="M75.55 97.75a2.82 2.82 0 0 1 2 .78.16.16 0 0 1 0 .23l-.52.53a.13.13 0 0 1-.21 0 2 2 0 0 0-1.29-.5 2 2 0 0 0 0 3.9 2 2 0 0 0 1.28-.48.15.15 0 0 1 .21 0l.52.54a.16.16 0 0 1 0 .22 2.87 2.87 0 0 1-2 .82 3 3 0 1 1 0-6ZM84.56 98a.16.16 0 0 1 .16-.16h.77a.16.16 0 0 1 .16.16v4.71h2.14a.15.15 0 0 1 .16.16v.68a.15.15 0 0 1-.16.16h-3.07a.16.16 0 0 1-.16-.16ZM94.68 98a.16.16 0 0 1 .16-.16h3.41a.16.16 0 0 1 .16.16v.69a.16.16 0 0 1-.16.16h-2.48v1.37h2.07a.16.16 0 0 1 .16.16v.7a.16.16 0 0 1-.16.16h-2.07v1.47h2.48a.15.15 0 0 1 .16.16v.68a.15.15 0 0 1-.16.16h-3.41a.16.16 0 0 1-.16-.16ZM104.73 103.48l2.61-5.64a.14.14 0 0 1 .14-.09h.08a.13.13 0 0 1 .14.09l2.59 5.64a.15.15 0 0 1-.14.22h-.73a.25.25 0 0 1-.25-.17l-.41-.9h-2.51l-.41.9a.24.24 0 0 1-.24.17h-.73a.15.15 0 0 1-.14-.22Zm3.62-1.78-.84-1.85-.83 1.85ZM116.93 98a.16.16 0 0 1 .16-.16h2.4a1.82 1.82 0 0 1 1.83 1.8 1.85 1.85 0 0 1-1.24 1.7l1.15 2.13a.16.16 0 0 1-.15.24h-.88a.15.15 0 0 1-.13-.07L119 101.4h-1v2.14a.16.16 0 0 1-.16.16h-.77a.16.16 0 0 1-.16-.16Zm2.47 2.52a.86.86 0 0 0 .83-.86.84.84 0 0 0-.83-.81H118v1.67ZM138.72 97.75a3 3 0 1 1-3 3 3 3 0 0 1 3-3Zm0 5a1.93 1.93 0 1 0-1.92-1.93 1.94 1.94 0 0 0 1.92 1.88ZM148.72 97.9a.15.15 0 0 1 .16-.15h.21l3.49 3.7V98a.16.16 0 0 1 .16-.16h.77a.17.17 0 0 1 .16.16v5.65a.16.16 0 0 1-.16.15h-.2l-3.51-3.85v3.6a.16.16 0 0 1-.16.16h-.76a.16.16 0 0 1-.16-.16ZM171.42 97.75a2.82 2.82 0 0 1 2 .78.15.15 0 0 1 0 .23l-.51.53a.13.13 0 0 1-.21 0 2 2 0 0 0-1.29-.5 2 2 0 0 0 0 3.9 2 2 0 0 0 1.28-.48.15.15 0 0 1 .21 0l.52.54a.15.15 0 0 1 0 .22 2.85 2.85 0 0 1-2 .82 3 3 0 1 1 0-6ZM180.43 98a.16.16 0 0 1 .16-.16h.77a.16.16 0 0 1 .16.16v4.71h2.14a.16.16 0 0 1 .16.16v.68a.16.16 0 0 1-.16.16h-3.07a.16.16 0 0 1-.16-.16ZM190.55 98a.16.16 0 0 1 .16-.16h.78a.17.17 0 0 1 .16.16v5.55a.16.16 0 0 1-.16.16h-.78a.16.16 0 0 1-.16-.16ZM199.66 97.87a.14.14 0 0 1 .15-.12h.19a.15.15 0 0 1 .14.08l1.85 4 1.85-4a.13.13 0 0 1 .14-.08h.13a.14.14 0 0 1 .16.12l1 5.64a.14.14 0 0 1-.15.19h-.76a.19.19 0 0 1-.16-.12l-.49-3.18-1.47 3.29a.14.14 0 0 1-.14.1h-.15a.14.14 0 0 1-.14-.1l-1.49-3.29-.49 3.18a.16.16 0 0 1-.15.12h-.76c-.11 0-.17-.07-.16-.19ZM211.49 103.48l2.61-5.64a.15.15 0 0 1 .14-.09h.09a.15.15 0 0 1 .14.09l2.58 5.64a.15.15 0 0 1-.14.22h-.73c-.13 0-.18 0-.24-.17l-.41-.9H213l-.41.9a.26.26 0 0 1-.25.17h-.73a.15.15 0 0 1-.12-.22Zm3.62-1.78-.83-1.85-.82 1.85ZM224.17 98.84h-1.28a.16.16 0 0 1-.16-.16V98a.16.16 0 0 1 .16-.16h3.67a.16.16 0 0 1 .16.16v.69a.16.16 0 0 1-.16.16h-1.29v4.7a.16.16 0 0 1-.16.16h-.78a.16.16 0 0 1-.16-.16ZM233.47 98a.16.16 0 0 1 .15-.16H237a.16.16 0 0 1 .16.16v.69a.16.16 0 0 1-.16.16h-2.48v1.37h2.07a.17.17 0 0 1 .16.16v.7a.16.16 0 0 1-.16.16h-2.07v1.47H237a.16.16 0 0 1 .16.16v.68a.16.16 0 0 1-.16.16h-3.42a.15.15 0 0 1-.15-.16Z" transform="translate(-27.52 -47.77)"/></svg>