<?xml version="1.0" encoding="UTF-8" standalone="no"?><!DOCTYPE svg PUBLIC "-//W3C//DTD SVG 1.1//EN" "http://www.w3.org/Graphics/SVG/1.1/DTD/svg11.dtd"><svg width="100%" height="100%" viewBox="0 0 216 57" version="1.1" xmlns="http://www.w3.org/2000/svg" xmlns:xlink="http://www.w3.org/1999/xlink" xml:space="preserve" xmlns:serif="http://www.serif.com/" style="fill-rule:evenodd;clip-rule:evenodd;stroke-linejoin:round;stroke-miterlimit:2;"><path d="M11.95,0c-5.95,0 -11.95,3.66 -11.95,11.83l0,18.91c0,8.22 6,11.89 12,11.89c7.19,0 11.65,-4.35 11.65,-11.37l-0,-4.17c0,-0.003 0,-0.007 0,-0.01c0,-0.631 -0.519,-1.15 -1.15,-1.15c-0.007,-0 -0.013,-0 -0.02,-0l-5,-0c-0.631,-0 -1.15,0.519 -1.15,1.15c-0,0.003 -0,0.007 -0,0.01l0,4.06c0,2.81 -1.43,4.23 -4.24,4.23c-2.81,-0 -4.29,-1.42 -4.29,-4l-0,-20.15c-0,-2.58 1.52,-4 4.29,-4c3.5,-0 4.24,2.3 4.24,4.23l0,4.07c0.021,0.616 0.534,1.11 1.15,1.11l5,-0c0.631,-0 1.15,-0.519 1.15,-1.15l0,-4.18c-0.03,-6.98 -4.49,-11.31 -11.68,-11.31Zm32.63,36.1c-0.12,0.015 -0.24,0.015 -0.36,-0c-0.029,-0.101 -0.029,-0.209 0,-0.31l-0.24,-14.39c-0.11,-6.24 -3.4,-9.63 -9.27,-9.53c-5.49,0.09 -9,3.61 -8.9,9l0,1.56c0.011,0.629 0.531,1.14 1.16,1.14c0.007,0 0.013,0 0.02,-0l4.58,-0.08c0.621,-0.013 1.125,-0.528 1.125,-1.15c0,-0.037 -0.001,-0.073 -0.005,-0.11l0,-1.4c0,-2 0.31,-2.44 2.11,-2.47c1.53,-0 2.16,0.6 2.19,2.17l0,2.79c-5.85,1.15 -12.12,3.45 -12,10.23l0,0.68c0.08,5 3.23,8.13 8,8.05c2.209,-0.03 4.337,-0.846 6,-2.3c0.883,1.465 2.539,2.292 4.24,2.12l1.45,-0c0.629,-0.011 1.14,-0.531 1.14,-1.16c0,-0.007 0,-0.013 0,-0.02l-0.06,-3.69c-0.016,-0.633 -0.547,-1.141 -1.18,-1.13Zm-7.42,-3.19c-0.122,1.738 -1.63,3.08 -3.37,3c-0.041,0.003 -0.083,0.004 -0.124,0.004c-0.977,0 -1.78,-0.803 -1.78,-1.78c-0,-0.075 0.005,-0.15 0.014,-0.224l0,-0.68c0,-0.88 -0.06,-3.09 5.21,-4.14l0.05,3.82Zm23.54,-20.77c-3,-0.53 -5.17,0.11 -6.76,2l-0.06,-0.78c-0.052,-0.598 -0.56,-1.062 -1.16,-1.06l-4.06,-0c-0.01,-0 -0.02,-0 -0.03,-0c-0.631,-0 -1.15,0.519 -1.15,1.15l0,27.15c-0,0.003 -0,0.007 -0,0.01c-0,0.631 0.519,1.15 1.15,1.15l4.88,-0c0.636,-0 1.16,-0.524 1.16,-1.16l0,-19c-0.066,-0.596 0.153,-1.189 0.59,-1.6c0.56,-0.5 1.89,-1 5.07,-0.62c0.326,0.042 0.655,-0.06 0.9,-0.28c0.251,-0.22 0.397,-0.536 0.4,-0.87l0,-4.95c-0.002,-0.55 -0.392,-1.027 -0.93,-1.14Zm14.36,-0.31c-1.865,-0.012 -3.676,0.637 -5.11,1.83l0,-11.69c0,-0.636 -0.524,-1.16 -1.16,-1.16l-4.81,-0c-0.636,-0 -1.16,0.524 -1.16,1.16l0,38.63c0,0.636 0.524,1.16 1.16,1.16l3.19,-0c0.547,-0.003 1.021,-0.394 1.13,-0.93l0.18,-0.87c1.521,1.522 3.609,2.345 5.76,2.27c4.86,-0 8.12,-3.66 8.12,-9.11l0,-12.24c0,-5.5 -2.88,-9.05 -7.3,-9.05Zm0.23,10.15l0,10.44c0,3.18 -1.32,3.6 -2.61,3.6c-1.29,-0 -2.73,-0.86 -2.73,-3.31l0,-11c0,-2.1 1,-3.31 2.84,-3.31c1.3,-0.02 2.5,0.42 2.5,3.58Zm19.08,-10.15c-5.79,-0 -9.68,4.13 -9.68,10.27l0,10c0,6.13 3.79,10.13 9.68,10.13c5.89,-0 9.63,-4 9.63,-10.15l0,-10c0,-6.22 -3.78,-10.25 -9.63,-10.25Zm-2.55,9.34c0,-1.06 0.33,-2.84 2.55,-2.84c2.22,-0 2.56,1.78 2.56,2.84l0,11.72c0,1.89 -0.86,2.84 -2.56,2.84c-1.7,-0 -2.55,-1 -2.55,-2.84l0,-11.72Zm26.97,-9.28c-2.166,-0.039 -4.219,0.985 -5.49,2.74l-0.08,-1.25c-0.037,-0.604 -0.545,-1.081 -1.15,-1.08l-4.07,-0c-0.631,-0 -1.15,0.519 -1.15,1.15l-0,27.15c-0,0.003 -0,0.007 -0,0.01c-0,0.631 0.519,1.15 1.15,1.15l4.88,-0c0.636,-0 1.16,-0.524 1.16,-1.16l-0,-17.75c-0,-1.39 1.24,-4.7 3.19,-4.7c1.95,-0 2.09,1.83 2.09,2.61l-0,19.84c-0,0.636 0.524,1.16 1.16,1.16l4.93,-0c0.636,-0 1.16,-0.524 1.16,-1.16l-0,-20c-0,-5.37 -2.98,-8.71 -7.78,-8.71Z" style="fill:#fff;fill-rule:nonzero;"/><path d="M149.48,20.67c2,-1.36 3,-3.68 3,-6.93l0,-3.13c0,-6.41 -3.49,-9.8 -10.1,-9.8l-11.17,-0c-0.636,-0 -1.16,0.524 -1.16,1.16l0,38.63c0,0.636 0.524,1.16 1.16,1.16l11.48,0c6.68,0 10.21,-3.39 10.21,-9.8l0,-4.12c0,-3.36 -1.16,-5.79 -3.42,-7.17Zm-4.73,-6.11c-0,2.23 -0.88,3.19 -3,3.19l-3.87,-0l-0,-9.87l4.6,0c1.4,0 2.32,0.45 2.32,2.62l-0.05,4.06Zm-6.9,9.86l4.23,0c2.05,0 3,1 3,3.19l0,4.52c0,1.82 -0.69,2.56 -2.38,2.56l-4.82,-0l-0.03,-10.27Zm30.92,-12.28c-3,-0.53 -5.17,0.11 -6.76,2l-0.06,-0.78c-0.052,-0.598 -0.56,-1.062 -1.16,-1.06l-4.06,-0c-0.633,-0 -1.155,0.517 -1.16,1.15l0,27.15c0,0.636 0.524,1.16 1.16,1.16l4.87,-0c0.636,-0 1.16,-0.524 1.16,-1.16l0,-19c-0.061,-0.595 0.157,-1.187 0.59,-1.6c0.57,-0.5 1.9,-1 5.07,-0.62c0.05,0.007 0.1,0.01 0.15,0.01c0.631,-0 1.15,-0.519 1.15,-1.15c0,-0.003 0,-0.007 0,-0.01l0,-4.95c-0,-0.557 -0.402,-1.039 -0.95,-1.14Z" style="fill:#fff;fill-rule:nonzero;"/><path d="M177.9,3.94c0,-0.64 -0.52,-1.16 -1.16,-1.16l-4.52,-0c-0.64,-0 -1.16,0.52 -1.16,1.16l0,5.16c0,0.64 0.52,1.16 1.16,1.16l4.52,-0c0.64,-0 1.16,-0.52 1.16,-1.16l0,-5.16Z" style="fill:#fff;"/><path d="M178.08,13.46c-0,-0.64 -0.52,-1.16 -1.16,-1.16l-4.87,0c-0.64,0 -1.16,0.52 -1.16,1.16l-0,27.15c-0,0.64 0.52,1.16 1.16,1.16l4.87,0c0.64,0 1.16,-0.52 1.16,-1.16l-0,-27.15Z" style="fill:#fff;"/><path d="M190.48,11.83c-5.85,-0 -9.63,4 -9.63,10.27l0,10c0.01,6.13 3.79,10.13 9.63,10.13c5.84,-0 9.22,-3.76 9.22,-10l0,-1.26c0,-0.003 0,-0.007 0,-0.01c0,-0.625 -0.515,-1.14 -1.14,-1.14c-0.003,-0 -0.007,-0 -0.01,-0l-4.3,-0c-0.003,-0 -0.007,-0 -0.01,-0c-0.631,-0 -1.15,0.519 -1.15,1.15l-0,1.86c-0,2 -0.86,3 -2.55,3c-1.69,-0 -2.61,-1 -2.61,-3l-0,-4.35l10.62,0c0.631,0 1.15,-0.519 1.15,-1.15c0,-0.003 0,-0.007 -0,-0.01l-0,-5.22c0.01,-6.33 -3.52,-10.27 -9.22,-10.27Zm-2.55,11.55l0,-2.09c0,-1.35 0.45,-3 2.61,-3c2.16,0 2.55,1.61 2.55,3l0,2.09l-5.16,0Zm25.94,-22.57l-1.92,-0c-5.3,-0 -8.35,3.68 -8.35,10.09l-0,1.4l-2,-0c-0.617,0.021 -1.115,0.532 -1.12,1.15l-0,4.12c-0,0.636 0.524,1.16 1.16,1.16l2,-0l-0,21.87c0,0.636 0.524,1.16 1.16,1.16l4.87,0c0.636,0 1.16,-0.524 1.16,-1.16l-0,-21.87l2.62,-0c0.633,-0.005 1.15,-0.527 1.15,-1.16l-0,-4.12c-0.005,-0.629 -0.521,-1.145 -1.15,-1.15l-2.85,0l-0,-2.38c-0,-2.47 1,-2.67 2,-2.67l1.28,0c0.636,0 1.16,-0.524 1.16,-1.16l0,-4.12c0,-0.636 -0.524,-1.16 -1.16,-1.16c-0.003,-0 -0.007,-0 -0.01,0Z" style="fill:#fff;fill-rule:nonzero;"/><path d="M48.03,49.98c0.743,-0.014 1.462,0.267 2,0.78c0.031,0.03 0.049,0.072 0.049,0.115c-0,0.043 -0.018,0.085 -0.049,0.115l-0.52,0.53c-0.024,0.034 -0.064,0.053 -0.105,0.053c-0.041,0 -0.081,-0.019 -0.105,-0.053c-0.357,-0.315 -0.814,-0.492 -1.29,-0.5c-0.907,0.207 -1.556,1.02 -1.556,1.95c0,0.93 0.649,1.743 1.556,1.95c0.47,-0.005 0.923,-0.175 1.28,-0.48c0.058,-0.057 0.152,-0.057 0.21,-0l0.52,0.54c0.058,0.061 0.058,0.159 -0,0.22c-0.534,0.523 -1.252,0.818 -2,0.82c-1.646,-0 -3,-1.354 -3,-3c-0,-1.646 1.354,-3 3,-3l0.01,-0.04Zm9.01,0.25c0,-0.088 0.072,-0.16 0.16,-0.16l0.77,-0c0.088,-0 0.16,0.072 0.16,0.16l-0,4.71l2.14,-0c0.003,-0 0.007,-0 0.01,-0c0.083,-0 0.15,0.067 0.15,0.15c0,0.003 0,0.007 -0,0.01l-0,0.68c0,0.003 0,0.007 0,0.01c0,0.083 -0.067,0.15 -0.15,0.15c-0.003,0 -0.007,0 -0.01,-0l-3.07,-0c-0.088,-0 -0.16,-0.072 -0.16,-0.16l0,-5.55Zm10.12,-0c0,-0.088 0.072,-0.16 0.16,-0.16l3.41,-0c0.088,-0 0.16,0.072 0.16,0.16l0,0.69c0,0.088 -0.072,0.16 -0.16,0.16l-2.48,-0l0,1.37l2.07,-0c0.088,-0 0.16,0.072 0.16,0.16l0,0.7c0,0.088 -0.072,0.16 -0.16,0.16l-2.07,-0l0,1.47l2.48,-0c0.003,-0 0.007,-0 0.01,-0c0.083,-0 0.15,0.067 0.15,0.15c0,0.003 0,0.007 -0,0.01l-0,0.68c0,0.003 0,0.007 0,0.01c0,0.083 -0.067,0.15 -0.15,0.15c-0.003,0 -0.007,0 -0.01,-0l-3.41,-0c-0.088,-0 -0.16,-0.072 -0.16,-0.16l0,-5.55Zm10.05,5.48l2.61,-5.64c0.022,-0.057 0.079,-0.094 0.14,-0.09l0.08,-0c0.062,-0.008 0.121,0.03 0.14,0.09l2.59,5.64c0.011,0.022 0.017,0.046 0.017,0.07c0,0.082 -0.067,0.15 -0.15,0.15c-0.002,0 -0.005,0 -0.007,-0l-0.73,-0c-0.112,0.006 -0.214,-0.064 -0.25,-0.17l-0.41,-0.9l-2.51,-0l-0.41,0.9c-0.032,0.104 -0.131,0.175 -0.24,0.17l-0.73,-0c-0.002,0 -0.005,0 -0.007,0c-0.083,0 -0.15,-0.068 -0.15,-0.15c-0,-0.024 0.006,-0.048 0.017,-0.07Zm3.62,-1.78l-0.84,-1.85l-0.83,1.85l1.67,-0Zm8.58,-3.7c0,-0.088 0.072,-0.16 0.16,-0.16l2.4,-0c0.995,-0.006 1.819,0.805 1.83,1.8c-0.019,0.768 -0.515,1.447 -1.24,1.7l1.15,2.13c0.014,0.024 0.022,0.052 0.022,0.08c-0,0.088 -0.073,0.16 -0.16,0.16c-0.004,0 -0.008,0 -0.012,0l-0.88,-0c-0.053,0.001 -0.102,-0.026 -0.13,-0.07l-1.07,-2.24l-1,0l-0,2.14c-0,0.088 -0.072,0.16 -0.16,0.16l-0.77,0c-0.088,0 -0.16,-0.072 -0.16,-0.16l0.02,-5.54Zm2.47,2.52c0.46,-0.016 0.83,-0.399 0.83,-0.86c-0.016,-0.446 -0.384,-0.805 -0.83,-0.81l-1.4,-0l-0,1.67l1.4,-0Zm19.32,-2.77c1.646,-0 3,1.354 3,3c-0,1.646 -1.354,3 -3,3c-1.646,-0 -3,-1.354 -3,-3c-0,-1.646 1.354,-3 3,-3Zm-0,5c0.003,0 0.007,0 0.01,0c1.059,0 1.93,-0.871 1.93,-1.93c-0,-1.059 -0.871,-1.93 -1.93,-1.93c-1.059,0 -1.93,0.871 -1.93,1.93c0.032,1.034 0.886,1.87 1.92,1.88l-0,0.05Zm10,-4.85c-0,-0 -0,-0 -0,-0c-0,-0.083 0.068,-0.15 0.15,-0.15c0.003,-0 0.007,-0 0.01,-0l0.21,-0l3.49,3.7l0,-3.45c0,-0.088 0.072,-0.16 0.16,-0.16l0.77,-0c0.086,0.005 0.155,0.074 0.16,0.16l0,5.65c-0.005,0.084 -0.076,0.15 -0.16,0.15l-0.2,0l-3.51,-3.85l0,3.6c0,0.088 -0.072,0.16 -0.16,0.16l-0.76,0c-0.088,0 -0.16,-0.072 -0.16,-0.16l0,-5.65Zm22.7,-0.15c0.743,-0.014 1.462,0.267 2,0.78c0.034,0.028 0.054,0.071 0.054,0.115c-0,0.044 -0.02,0.087 -0.054,0.115l-0.51,0.53c-0.024,0.034 -0.064,0.053 -0.105,0.053c-0.041,0 -0.081,-0.019 -0.105,-0.053c-0.357,-0.315 -0.814,-0.492 -1.29,-0.5c-0.907,0.207 -1.556,1.02 -1.556,1.95c0,0.93 0.649,1.743 1.556,1.95c0.47,-0.005 0.923,-0.175 1.28,-0.48c0.058,-0.057 0.152,-0.057 0.21,-0l0.52,0.54c0.031,0.028 0.048,0.068 0.048,0.11c0,0.042 -0.017,0.082 -0.048,0.11c-0.533,0.525 -1.252,0.82 -2,0.82c-1.646,-0 -3,-1.354 -3,-3c-0,-1.646 1.354,-3 3,-3l-0,-0.04Zm9.01,0.25c-0,-0.088 0.072,-0.16 0.16,-0.16l0.77,-0c0.088,-0 0.16,0.072 0.16,0.16l-0,4.71l2.14,-0c0.088,-0 0.16,0.072 0.16,0.16l-0,0.68c-0,0.088 -0.072,0.16 -0.16,0.16l-3.07,-0c-0.088,-0 -0.16,-0.072 -0.16,-0.16l-0,-5.55Zm10.12,-0c-0,-0.088 0.072,-0.16 0.16,-0.16l0.78,-0c0.086,0.005 0.155,0.074 0.16,0.16l-0,5.55c-0,0.088 -0.072,0.16 -0.16,0.16l-0.78,-0c-0.088,-0 -0.16,-0.072 -0.16,-0.16l-0,-5.55Zm9.11,-0.13c0.01,-0.073 0.077,-0.126 0.15,-0.12l0.19,-0c0.058,-0.003 0.113,0.028 0.14,0.08l1.85,4l1.85,-4c0.022,-0.056 0.081,-0.089 0.14,-0.08l0.13,-0c0.007,-0.001 0.014,-0.002 0.021,-0.002c0.07,0 0.13,0.053 0.139,0.122l1,5.64c0.006,0.016 0.01,0.034 0.01,0.051c-0,0.077 -0.063,0.14 -0.14,0.14c-0.007,0 -0.013,-0 -0.02,-0.001l-0.76,-0c-0.072,-0.006 -0.134,-0.053 -0.16,-0.12l-0.49,-3.18l-1.47,3.29c-0.018,0.061 -0.076,0.103 -0.14,0.1l-0.15,-0c-0.064,0.003 -0.122,-0.039 -0.14,-0.1l-1.49,-3.29l-0.49,3.18c-0.018,0.069 -0.079,0.118 -0.15,0.12l-0.76,-0c-0.11,-0 -0.17,-0.07 -0.16,-0.19l0.9,-5.64Zm11.83,5.61l2.61,-5.64c0.024,-0.055 0.08,-0.091 0.14,-0.09l0.09,-0c0.06,-0.001 0.116,0.035 0.14,0.09l2.58,5.64c0.011,0.022 0.017,0.046 0.017,0.07c0,0.082 -0.067,0.15 -0.15,0.15c-0.002,0 -0.005,0 -0.007,-0l-0.73,-0c-0.13,-0 -0.18,-0 -0.24,-0.17l-0.41,-0.9l-2.53,-0l-0.41,0.9c-0.038,0.104 -0.139,0.173 -0.25,0.17l-0.73,-0c-0.077,-0.006 -0.138,-0.072 -0.138,-0.149c0,-0.025 0.006,-0.049 0.018,-0.071Zm3.62,-1.78l-0.83,-1.85l-0.82,1.85l1.65,-0Zm9.06,-2.86l-1.28,-0c-0.088,-0 -0.16,-0.072 -0.16,-0.16l-0,-0.68c-0,-0.088 0.072,-0.16 0.16,-0.16l3.67,-0c0.088,-0 0.16,0.072 0.16,0.16l-0,0.69c-0,0.088 -0.072,0.16 -0.16,0.16l-1.29,-0l-0,4.7c-0,0.088 -0.072,0.16 -0.16,0.16l-0.78,-0c-0.088,-0 -0.16,-0.072 -0.16,-0.16l-0,-4.71Zm9.3,-0.84c-0,-0.084 0.066,-0.155 0.15,-0.16l3.38,-0c0.088,-0 0.16,0.072 0.16,0.16l-0,0.69c-0,0.088 -0.072,0.16 -0.16,0.16l-2.48,-0l-0,1.37l2.07,-0c0.086,0.005 0.155,0.074 0.16,0.16l-0,0.7c-0,0.088 -0.072,0.16 -0.16,0.16l-2.07,-0l-0,1.47l2.48,-0c0.088,-0 0.16,0.072 0.16,0.16l-0,0.68c-0,0.088 -0.072,0.16 -0.16,0.16l-3.42,0c-0.083,0 -0.15,-0.068 -0.15,-0.15c-0,-0.003 -0,-0.007 -0,-0.01l0.04,-5.55Z" style="fill:#fff;fill-rule:nonzero;"/></svg>